<svg width="106" height="24" viewBox="0 0 106 24" fill="none" xmlns="http://www.w3.org/2000/svg">
<path d="M12.0001 23.9999C15.8317 23.9999 19.4319 22.1809 21.6774 19.0842V22.4516H24V15.0968H16.6452V17.4194H20.0126C16.993 21.8315 10.9929 22.9928 6.58083 19.9748C2.16873 16.9551 1.00745 10.9551 4.02539 6.54294C7.04504 2.13081 13.0451 0.969523 17.4572 3.98748C20.0897 5.76724 21.6773 8.78671 21.6773 12V12.3871H23.9998V12C23.9998 5.37987 18.62 0 11.9999 0C5.37984 0 0 5.37987 0 12C0 18.6201 5.37999 23.9999 12.0001 23.9999Z" fill="#00ACC1"/>
<path d="M10.4517 13.4713L7.35495 10.3745L5.72946 12L9.63989 15.9105C10.1041 16.3747 10.8405 16.3747 11.2654 15.9105L18.271 8.90324L16.6455 7.27774L10.4517 13.4713Z" fill="#00ACC1"/>
<path d="M105.655 13.6148C105.057 16.1625 103.041 18.0899 99.9835 18.0899C96.6162 18.0899 94.1571 15.52 94.1571 12.3077C94.1571 9.09539 96.6162 6.52554 99.9835 6.52554C103.041 6.52554 105.057 8.45293 105.655 11.0006H102.509C102.088 10.0037 101.268 9.27262 99.9835 9.27262C98.3885 9.27262 97.2143 10.4689 97.2143 12.3077C97.2143 14.1465 98.3885 15.3428 99.9835 15.3428C101.268 15.3428 102.088 14.6117 102.509 13.6148H105.655Z" fill="#14171F"/>
<path d="M93.1376 14.2351C92.473 16.4726 90.2797 18.0899 87.4662 18.0899C84.0767 18.0899 81.6619 15.6529 81.6619 12.2855C81.6619 8.98462 84.121 6.52554 87.4884 6.52554C90.745 6.52554 93.4256 8.8517 93.2705 13.0166H84.6305C84.7634 14.3237 85.7382 15.4535 87.6213 15.4535C88.6847 15.4535 89.6151 14.9883 89.9696 14.2351H93.1376ZM87.3997 8.98462C86.004 8.98462 85.0293 9.80431 84.7413 11.0228H89.9474C89.5708 9.53847 88.441 8.98462 87.3997 8.98462Z" fill="#14171F"/>
<path d="M80.7935 14.7225C80.7935 16.8049 78.8439 18.0899 76.1633 18.0899C73.3055 18.0899 71.2673 16.4948 71.1566 14.3237H74.3246C74.4353 15.2985 75.2772 15.7637 76.252 15.7637C77.2046 15.7637 77.6919 15.4092 77.6919 14.8775C77.6919 14.3015 77.271 14.0135 76.2963 13.7699L74.2138 13.2382C72.2864 12.7508 71.4003 11.4215 71.4003 9.80431C71.4003 7.89908 73.0839 6.52554 75.8532 6.52554C78.2901 6.52554 80.151 7.81047 80.3283 10.0259H77.271C77.1159 9.18401 76.4735 8.89601 75.8089 8.89601C75.0335 8.89601 74.5018 9.20616 74.5018 9.73785C74.5018 10.3582 75.1 10.6019 75.7646 10.7569L77.7141 11.2886C79.8852 11.8425 80.7935 12.9945 80.7935 14.7225Z" fill="#14171F"/>
<path d="M58.121 12.3077C58.121 9.16185 60.3807 6.52554 63.3272 6.52554C64.8558 6.52554 66.0299 7.30093 66.5173 8.00985V6.76924H69.5524V17.8462H66.5173V16.6055C66.0299 17.3145 64.8558 18.0899 63.3272 18.0899C60.3807 18.0899 58.121 15.4535 58.121 12.3077ZM66.761 12.3077C66.761 10.5797 65.6312 9.29478 63.9696 9.29478C62.3081 9.29478 61.1783 10.5797 61.1783 12.3077C61.1783 14.0357 62.3081 15.3206 63.9696 15.3206C65.6312 15.3206 66.761 14.0357 66.761 12.3077Z" fill="#14171F"/>
<path d="M51.3445 22.4763H48.0435L50.3697 17.2258L45.7174 6.76923H49.0405L52.0091 13.9471L54.9555 6.76923H58.3008L51.3445 22.4763Z" fill="#14171F"/>
<path d="M33.3686 12.3077C33.3686 9.16185 35.6283 6.52554 38.5748 6.52554C40.1034 6.52554 41.2775 7.30093 41.7649 8.00985V6.76924H44.8V17.8462H41.7649V16.6055C41.2775 17.3145 40.1034 18.0899 38.5748 18.0899C35.6283 18.0899 33.3686 15.4535 33.3686 12.3077ZM42.0086 12.3077C42.0086 10.5797 40.8788 9.29478 39.2172 9.29478C37.5557 9.29478 36.4259 10.5797 36.4259 12.3077C36.4259 14.0357 37.5557 15.3206 39.2172 15.3206C40.8788 15.3206 42.0086 14.0357 42.0086 12.3077Z" fill="#14171F"/>
</svg>
